<?xml version="1.0" encoding="UTF-8" standalone="no"?>
<!DOCTYPE svg PUBLIC "-//W3C//DTD SVG 1.1//EN" "http://www.w3.org/Graphics/SVG/1.1/DTD/svg11.dtd">
<svg version="1.1" xmlns="http://www.w3.org/2000/svg" xmlns:xlink="http://www.w3.org/1999/xlink" preserveAspectRatio="xMidYMid meet" viewBox="0 0 640 640" width="640" height="640"><defs><path d="M367.64 385.13C385.4 385.13 402.11 375.67 411.25 360.44C413.07 357.41 427.6 333.19 429.41 330.16C432.26 325.42 430.72 319.26 425.98 316.42C421.23 313.57 415.08 315.11 412.23 319.85C410.41 322.88 395.88 347.1 394.07 350.13C388.53 359.35 378.4 365.09 367.64 365.09C350.91 365.09 217.12 365.09 200.39 365.09C194.86 365.09 190.37 369.57 190.37 375.11C190.37 380.64 194.86 385.13 200.39 385.13C233.84 385.13 350.92 385.13 367.64 385.13Z" id="a1PZLGTwBq"></path><path d="M631.23 375.11C631.23 314.34 581.79 264.89 521.02 264.89C515.48 264.89 471.19 264.89 465.65 264.89C450.13 252.68 386.9 204.77 350.68 204.77C343.92 204.77 289.82 204.77 283.05 204.77C269.27 204.77 255.62 206.86 242.47 210.97C242.21 211.05 241.96 211.14 241.72 211.24C232.49 214.95 158.65 244.69 149.42 248.4C135.56 252.7 121.17 254.87 106.65 254.87C103.33 254.87 76.82 254.87 73.5 254.87C73.03 253.9 72.4 252.98 71.59 252.17C70.61 251.2 62.83 243.41 61.85 242.44C72.6 237.84 80.16 227.15 80.16 214.74C80.16 213.74 80.16 205.77 80.16 204.77C80.16 199.24 75.67 194.76 70.14 194.76C64.13 194.76 16.03 194.76 10.02 194.76C4.49 194.76 0 199.24 0 204.77C0 205.77 0 213.74 0 214.74C0 231.34 13.51 244.85 30.12 244.85C30.5 244.85 32.44 244.85 35.93 244.85L45.95 254.87C40.92 254.87 38.13 254.87 37.58 254.87C22.38 254.87 10.02 267.23 10.02 282.43C10.02 290.7 10.02 356.82 10.02 365.09C10.02 388.27 26.67 407.79 52.45 414.83C65.11 433.18 86.28 445.24 110.22 445.24C129.28 445.24 146.58 437.59 159.23 425.21C190.51 425.21 440.72 425.21 472 425.21C484.65 437.59 501.95 445.24 521.02 445.24C540.08 445.24 557.38 437.59 570.03 425.21C576.03 425.21 623.99 425.21 629.98 425.21C635.51 425.21 640 420.72 640 415.19C640 410.08 636.17 405.87 631.23 405.25C631.23 399.22 631.23 378.12 631.23 375.11ZM60.12 214.79C60.09 220.33 55.58 224.81 50.04 224.81C48.05 224.81 32.11 224.81 30.12 224.81C24.58 224.81 20.07 220.33 20.04 214.79C28.05 214.79 56.11 214.79 60.12 214.79ZM436.14 284.43C417.23 282.62 265.95 268.13 247.04 266.32C255.89 250.45 274.25 224.81 300.59 224.81C305.6 224.81 345.68 224.81 350.68 224.81C374.34 224.81 421.22 256.41 446.23 275.24C441.76 278.38 438.43 281.71 436.14 284.43ZM30.06 282.43C30.06 278.28 33.43 274.91 37.58 274.91C44.48 274.91 99.74 274.91 106.65 274.91C123.33 274.91 139.86 272.39 155.78 267.41C156.03 267.34 156.28 267.25 156.53 267.15C165.73 263.44 239.3 233.81 248.5 230.11C246 232.79 243.55 235.66 241.17 238.75C228.9 254.73 222.63 270.6 222.37 271.27C221.23 274.19 221.52 277.49 223.17 280.16C224.81 282.84 227.62 284.59 230.75 284.89C251.66 286.89 418.99 302.92 439.91 304.93C440.26 304.96 440.61 304.98 440.95 304.98C444.62 304.98 447.93 303.1 449.65 299.78C450.35 298.6 458.96 284.93 480.94 284.93C484.95 284.93 517.01 284.93 521.02 284.93C570.74 284.93 611.19 325.39 611.19 375.11C611.19 377.11 611.19 387.13 611.19 405.17C595.1 405.17 586.16 405.17 584.37 405.17C588.72 396.05 591.15 385.86 591.15 375.11C591.15 336.44 559.69 304.97 521.02 304.97C482.34 304.97 450.88 336.44 450.88 375.11C450.88 385.86 453.32 396.05 457.66 405.17C429.25 405.17 201.98 405.17 173.57 405.17C177.91 396.05 180.35 385.86 180.35 375.11C180.35 336.44 148.89 304.97 110.22 304.97C71.54 304.97 40.08 336.44 40.08 375.11C40.08 379.26 40.46 383.32 41.16 387.27C34.09 381.51 30.06 373.77 30.06 365.09C30.06 348.56 30.06 290.7 30.06 282.43ZM110.22 325.01C137.84 325.01 160.31 347.48 160.31 375.11C160.31 402.73 137.84 425.21 110.22 425.21C82.59 425.21 60.12 402.73 60.12 375.11C60.12 347.48 82.59 325.01 110.22 325.01ZM470.92 375.11C470.92 347.48 493.39 325.01 521.02 325.01C548.64 325.01 571.12 347.48 571.12 375.11C571.12 402.73 548.64 425.21 521.02 425.21C493.39 425.21 470.92 402.73 470.92 375.11Z" id="dmMmIZ29A"></path><path d="M130.25 375.11C130.25 386.16 121.26 395.15 110.22 395.15C99.17 395.15 90.18 386.16 90.18 375.11C90.18 364.06 99.17 355.07 110.22 355.07C115.75 355.07 120.23 350.58 120.23 345.05C120.23 339.52 115.75 335.03 110.22 335.03C88.12 335.03 70.14 353.01 70.14 375.11C70.14 397.21 88.12 415.19 110.22 415.19C132.31 415.19 150.29 397.21 150.29 375.11C150.29 369.57 145.81 365.09 140.27 365.09C134.74 365.09 130.25 369.57 130.25 375.11Z" id="bhEw2Exz"></path><path d="M541.06 375.11C541.06 386.16 532.07 395.15 521.02 395.15C509.97 395.15 500.98 386.16 500.98 375.11C500.98 364.06 509.97 355.07 521.02 355.07C526.55 355.07 531.04 350.58 531.04 345.05C531.04 339.52 526.55 335.03 521.02 335.03C498.92 335.03 480.94 353.01 480.94 375.11C480.94 397.21 498.92 415.19 521.02 415.19C543.12 415.19 561.1 397.21 561.1 375.11C561.1 369.57 556.61 365.09 551.08 365.09C545.54 365.09 541.06 369.57 541.06 375.11Z" id="f5ZVvBon0"></path></defs><g><g><g><use xlink:href="#a1PZLGTwBq" opacity="1" fill="#ffffff" fill-opacity="1"></use><g><use xlink:href="#a1PZLGTwBq" opacity="1" fill-opacity="0" stroke="#000000" stroke-width="1" stroke-opacity="0"></use></g></g><g><use xlink:href="#dmMmIZ29A" opacity="1" fill="#ffffff" fill-opacity="1"></use><g><use xlink:href="#dmMmIZ29A" opacity="1" fill-opacity="0" stroke="#000000" stroke-width="1" stroke-opacity="0"></use></g></g><g><use xlink:href="#bhEw2Exz" opacity="1" fill="#ffffff" fill-opacity="1"></use><g><use xlink:href="#bhEw2Exz" opacity="1" fill-opacity="0" stroke="#000000" stroke-width="1" stroke-opacity="0"></use></g></g><g><use xlink:href="#f5ZVvBon0" opacity="1" fill="#ffffff" fill-opacity="1"></use><g><use xlink:href="#f5ZVvBon0" opacity="1" fill-opacity="0" stroke="#000000" stroke-width="1" stroke-opacity="0"></use></g></g></g></g></svg>